<svg width="102" height="324" viewBox="0 0 102 324" fill="none" xmlns="http://www.w3.org/2000/svg">
<path d="M-97.5403 279.037L-97.7567 278.844C-81.0779 262.227 -60.5495 239.61 -54.0478 214.016C-50.7993 201.228 -51.055 187.7 -57.042 173.803C-63.0304 159.902 -74.7627 145.608 -94.5094 131.306C-144.761 94.9105 -191.156 96.2615 -225.212 94.6128C-242.218 93.7895 -256.227 92.2177 -266.034 84.7224C-275.861 77.2116 -281.395 63.8203 -281.659 39.5615L-281.364 39.568L-281.07 39.5755C-280.806 63.7854 -275.281 76.9548 -265.672 84.2985C-256.043 91.6576 -242.237 93.235 -225.203 94.0597C-191.177 95.7069 -144.586 94.3503 -94.1602 130.872C-74.3504 145.22 -62.5352 159.592 -56.4958 173.611C-50.4555 187.632 -50.2032 201.28 -53.4756 214.162C-60.016 239.909 -80.6459 262.616 -97.3221 279.23L-97.5403 279.037ZM-157.653 414.57L-157.869 414.376C-141.19 397.76 -120.662 375.143 -114.16 349.549C-112.25 342.027 -111.552 334.25 -112.519 326.292C-112.528 326.329 -112.538 326.367 -112.548 326.405C-119.088 352.151 -139.718 374.859 -156.394 391.473L-156.611 391.279L-156.829 391.085C-140.15 374.469 -119.621 351.852 -113.119 326.258C-112.986 325.731 -112.86 325.203 -112.738 324.675C-113.129 322.059 -113.705 319.424 -114.476 316.773C-123.423 337.314 -140.065 355.392 -153.962 369.237L-154.18 369.043L-154.396 368.849C-140.347 354.852 -123.565 336.597 -114.738 315.892C-115.406 313.717 -116.208 311.531 -117.154 309.336C-117.187 309.258 -117.222 309.181 -117.256 309.103C-126.483 324.221 -138.999 337.602 -149.844 348.406L-150.061 348.213L-150.277 348.02C-139.342 337.125 -126.752 323.652 -117.545 308.451C-118.327 306.704 -119.2 304.95 -120.17 303.191C-127.705 313.008 -136.128 321.848 -143.73 329.421L-143.949 329.228L-144.165 329.034C-136.505 321.402 -128.032 312.505 -120.48 302.634C-121.107 301.519 -121.774 300.401 -122.48 299.282C-126.838 304.12 -131.229 308.628 -135.375 312.76L-135.593 312.567L-135.811 312.373C-131.623 308.201 -127.192 303.652 -122.803 298.772C-123.044 298.396 -123.29 298.02 -123.54 297.643C-123.932 298.036 -124.322 298.426 -124.709 298.812L-124.927 298.619L-125.144 298.425C-124.721 298.004 -124.297 297.579 -123.87 297.151C-130.622 287.143 -140.602 276.993 -154.622 266.839C-204.873 230.443 -251.269 231.795 -285.325 230.146C-302.33 229.323 -316.339 227.751 -326.146 220.256C-335.973 212.745 -341.506 199.354 -341.771 175.095L-341.182 175.109C-340.918 199.319 -335.393 212.487 -325.784 219.831C-316.155 227.19 -302.35 228.769 -285.315 229.594C-251.29 231.241 -204.699 229.883 -154.273 266.405C-140.267 276.549 -130.257 286.706 -123.46 296.74C-120.775 294.04 -118.009 291.189 -115.231 288.204C-115.511 287.485 -115.803 286.765 -116.113 286.045C-122.102 272.144 -133.835 257.85 -153.582 243.548C-203.833 207.152 -250.228 208.504 -284.284 206.855C-301.29 206.032 -315.299 204.46 -325.106 196.965C-334.933 189.454 -340.467 176.063 -340.731 151.804L-340.436 151.81L-340.142 151.818C-339.878 176.028 -334.353 189.196 -324.744 196.54C-315.115 203.899 -301.309 205.477 -284.275 206.302C-250.249 207.949 -203.658 206.593 -153.232 243.115C-133.423 257.463 -121.608 271.833 -115.568 285.852C-115.298 286.479 -115.042 287.107 -114.795 287.732C-112.856 285.638 -110.911 283.48 -108.989 281.257C-109.637 275.526 -111.143 269.701 -113.681 263.809C-119.669 249.908 -131.402 235.614 -151.149 221.311C-201.4 184.916 -247.797 186.267 -281.852 184.619C-298.858 183.795 -312.867 182.224 -322.674 174.729C-332.501 167.218 -338.034 153.827 -338.299 129.568L-338.004 129.575L-337.709 129.582C-337.445 153.792 -331.92 166.96 -322.311 174.304C-312.682 181.663 -298.877 183.242 -281.843 184.066C-247.817 185.714 -201.226 184.356 -150.8 220.878C-130.99 235.226 -119.176 249.597 -113.136 263.617C-110.659 269.366 -109.156 275.053 -108.47 280.649C-108.012 280.116 -107.555 279.58 -107.1 279.04C-106.439 278.073 -105.79 277.099 -105.154 276.117C-103.605 265.453 -104.669 254.339 -109.563 242.978C-115.551 229.078 -127.283 214.784 -147.03 200.482C-197.281 164.086 -243.678 165.438 -277.733 163.789C-294.739 162.966 -308.748 161.393 -318.555 153.898C-328.382 146.387 -333.915 132.997 -334.179 108.738L-333.59 108.752C-333.326 132.962 -327.801 146.13 -318.192 153.474C-308.563 160.833 -294.758 162.411 -277.724 163.236C-243.699 164.883 -197.107 163.526 -146.681 200.048C-126.871 214.396 -115.056 228.767 -109.016 242.786C-104.273 253.797 -103.1 264.578 -104.399 274.938C-104.052 274.39 -103.711 273.838 -103.372 273.286C-102.219 270.306 -101.236 267.278 -100.456 264.207C-97.2078 251.419 -97.4631 237.892 -103.45 223.994C-109.438 210.093 -121.171 195.799 -140.918 181.497C-191.169 145.101 -237.565 146.452 -271.62 144.803C-288.626 143.98 -302.635 142.409 -312.442 134.914C-322.269 127.403 -327.802 114.012 -328.067 89.7528L-327.478 89.7668C-327.214 113.977 -321.689 127.145 -312.08 134.489C-302.451 141.848 -288.646 143.427 -271.611 144.251C-237.586 145.899 -190.995 144.541 -140.569 181.063C-120.759 195.411 -108.944 209.782 -102.904 223.801C-96.8638 237.823 -96.611 251.471 -99.8836 264.353C-100.412 266.435 -101.034 268.496 -101.737 270.536C-97.522 263.223 -94.1298 255.529 -92.1017 247.545C-88.8532 234.757 -89.1075 221.23 -95.0945 207.332C-101.083 193.431 -112.816 179.137 -132.563 164.835C-182.815 128.439 -229.21 129.79 -263.265 128.142C-280.271 127.318 -294.28 125.747 -304.087 118.252C-313.915 110.741 -319.448 97.3501 -319.712 73.0911L-319.417 73.0977L-319.123 73.1051C-318.859 97.3149 -313.334 110.484 -303.726 117.827C-294.097 125.187 -280.29 126.765 -263.256 127.589C-229.231 129.237 -182.64 127.879 -132.214 164.401C-112.404 178.749 -100.589 193.12 -94.5497 207.14C-88.5092 221.161 -88.2565 234.809 -91.529 247.692C-93.8236 256.725 -97.8524 265.383 -102.836 273.536C-102.905 273.713 -102.974 273.889 -103.044 274.066C-93.4794 261.931 -85.1574 248.252 -81.4346 233.597C-78.1862 220.81 -78.4414 207.282 -84.4283 193.384C-90.4167 179.484 -102.149 165.189 -121.896 150.887C-172.148 114.492 -218.543 115.843 -252.598 114.194C-269.604 113.371 -283.613 111.799 -293.42 104.304C-303.248 96.7935 -308.781 83.4023 -309.045 59.1433L-308.456 59.1573C-308.192 83.3672 -302.667 96.5357 -293.059 103.88C-283.43 111.239 -269.624 112.817 -252.59 113.642C-218.564 115.289 -171.973 113.931 -121.547 150.453C-101.737 164.801 -89.9221 179.173 -83.8827 193.192C-77.8422 207.214 -77.5895 220.861 -80.862 233.744C-84.7703 249.129 -93.7096 263.429 -103.83 275.992C-104.191 276.848 -104.565 277.7 -104.953 278.548C-105.047 279.069 -105.149 279.589 -105.256 280.108C-90.2558 264.406 -74.2267 244.557 -68.622 222.494C-65.3736 209.706 -65.628 196.178 -71.6148 182.28C-77.6032 168.38 -89.3367 154.085 -109.084 139.783C-159.335 103.388 -205.73 104.739 -239.786 103.09C-256.792 102.267 -270.801 100.696 -280.608 93.2006C-290.435 85.6898 -295.968 72.2986 -296.233 48.0396L-295.937 48.0461L-295.644 48.0536C-295.38 72.2634 -289.855 85.4321 -280.246 92.7758C-270.617 100.135 -256.811 101.712 -239.777 102.537C-205.751 104.184 -159.16 102.828 -108.734 139.35C-88.9246 153.698 -77.1095 168.069 -71.0701 182.088C-65.0296 196.11 -64.7768 209.758 -68.0493 222.64C-73.7717 245.166 -90.2787 265.366 -105.487 281.193C-105.646 281.91 -105.815 282.625 -105.996 283.338C-106.578 285.628 -107.273 287.893 -108.065 290.133C-108.234 294.897 -108.949 299.581 -110.115 304.168C-110.269 304.778 -110.434 305.385 -110.605 305.991C-110.159 312.368 -110.749 318.62 -112.14 324.707C-110.872 333.272 -111.54 341.634 -113.588 349.696C-120.128 375.443 -140.759 398.15 -157.435 414.764L-157.653 414.57ZM-81.6744 272.695L-81.8923 272.501C-65.2134 255.885 -44.6841 233.267 -38.1825 207.673C-34.9341 194.886 -35.1892 181.358 -41.1762 167.461C-47.1645 153.56 -58.8981 139.266 -78.6449 124.964C-128.896 88.5683 -175.291 89.9198 -209.347 88.2712C-226.353 87.4479 -240.362 85.876 -250.169 78.3807C-259.996 70.87 -265.53 57.4787 -265.794 33.2198L-265.499 33.2263L-265.205 33.2338C-264.941 57.4435 -259.416 70.6122 -249.807 77.956C-240.178 85.3153 -226.372 86.8933 -209.338 87.718C-175.312 89.3653 -128.721 88.0086 -78.2952 124.531C-58.4856 138.878 -46.6708 153.249 -40.6314 167.268C-34.5908 181.29 -34.3381 194.938 -37.6107 207.82C-44.1512 233.567 -64.781 256.274 -81.4571 272.888L-81.6744 272.695ZM-64.9503 267.888L-65.1668 267.694C-48.488 251.078 -27.9596 228.461 -21.4578 202.867C-18.2094 190.079 -18.4642 176.55 -24.4512 162.653C-30.4396 148.752 -42.1728 134.458 -61.9194 120.157C-112.171 83.7609 -158.566 85.112 -192.622 83.4633C-209.628 82.64 -223.637 81.0682 -233.444 73.5729C-243.271 66.0621 -248.804 52.6713 -249.068 28.4128L-248.773 28.4193L-248.479 28.4268C-248.216 52.6364 -242.691 65.8053 -233.082 73.149C-223.453 80.5081 -209.647 82.0855 -192.613 82.9102C-158.587 84.5574 -111.996 83.2008 -61.5703 119.723C-41.7604 134.071 -29.9453 148.442 -23.9059 162.461C-17.8655 176.483 -17.6132 190.13 -20.8857 203.013C-27.4261 228.759 -48.056 251.467 -64.7321 268.081L-64.9503 267.888ZM-47.7211 264.035L-47.9381 263.841C-31.2592 247.224 -10.7308 224.607 -4.22916 199.013C-0.980765 186.225 -1.2359 172.698 -7.22286 158.8C-13.2112 144.9 -24.9439 130.605 -44.6908 116.303C-94.9421 79.9073 -141.338 81.2595 -175.393 79.6108C-192.399 78.7875 -206.408 77.2152 -216.215 69.72C-226.042 62.2092 -231.575 48.818 -231.84 24.559L-231.251 24.573C-230.987 48.7828 -225.462 61.9514 -215.853 69.2953C-206.224 76.6545 -192.419 78.233 -175.384 79.0577C-141.359 80.705 -94.7672 79.3477 -44.3411 115.87C-24.5315 130.218 -12.7166 144.589 -6.67723 158.607C-0.63671 172.629 -0.384014 186.277 -3.65649 199.16C-10.1969 224.907 -30.8276 247.614 -47.5038 264.228L-47.7211 264.035ZM-30.4707 260.455C-13.7917 243.838 6.73754 221.221 13.2392 195.627C16.4876 182.839 16.2319 169.311 10.2449 155.413C4.25656 141.513 -7.47661 127.219 -27.2233 112.917C-77.4747 76.5214 -123.87 77.8725 -157.925 76.2238C-174.931 75.4005 -188.941 73.8287 -198.748 66.3334C-208.575 58.8226 -214.108 45.4317 -214.372 21.1733L-214.077 21.1798L-213.783 21.1873C-213.519 45.3969 -207.994 58.5658 -198.386 65.9095C-188.757 73.2686 -174.951 74.846 -157.917 75.6707C-123.891 77.3179 -77.3002 75.9612 -26.8741 112.483C-7.06426 126.831 4.75085 141.203 10.7902 155.222C16.8306 169.243 17.0829 182.891 13.8105 195.773C7.27002 221.52 -13.3598 244.227 -30.036 260.841L-30.4707 260.455ZM-12.7478 257.34L-12.9656 257.146C3.71328 240.529 24.2426 217.912 30.7442 192.318C33.9925 179.531 33.7374 166.003 27.7505 152.105C21.7621 138.205 10.0286 123.911 -9.71828 109.608C-59.9696 73.213 -106.365 74.5639 -140.42 72.9152C-157.426 72.0919 -171.435 70.5209 -181.242 63.0256C-191.07 55.5149 -196.603 42.1237 -196.867 17.8647L-196.572 17.8712L-196.278 17.8787C-196.014 42.0885 -190.489 55.2571 -180.881 62.6009C-171.252 69.9602 -157.445 71.5382 -140.411 72.3629C-106.386 74.0102 -59.7949 72.6531 -9.3691 109.175C10.4407 123.523 22.2559 137.894 28.2953 151.913C34.3358 165.935 34.5885 179.583 31.316 192.465C24.7755 218.212 4.14567 240.919 -12.5304 257.533L-12.7478 257.34ZM4.65192 253.819L4.43493 253.625C21.1137 237.008 41.6427 214.392 48.1444 188.798C51.3929 176.01 51.1372 162.482 45.1502 148.585C39.1618 134.684 27.4292 120.389 7.68229 106.087C-42.5687 69.692 -88.9641 71.0434 -123.019 69.3948C-140.025 68.5715 -154.035 66.9996 -163.842 59.5044C-173.669 51.9936 -179.202 38.6024 -179.467 14.3434L-178.878 14.3574C-178.614 38.5671 -173.089 51.7358 -163.48 59.0796C-153.851 66.4388 -140.046 68.0174 -123.011 68.8421C-88.9857 70.4894 -42.3942 69.1321 8.03198 105.654C27.8416 120.002 39.6564 134.373 45.6958 148.392C51.7363 162.414 51.989 176.061 48.7166 188.944C42.1761 214.691 21.5454 237.398 4.86927 254.013L4.65192 253.819ZM21.6149 249.678C38.2938 233.061 58.8231 210.444 65.3247 184.85C68.5732 172.062 68.3175 158.534 62.3305 144.636C56.3421 130.736 44.6089 116.442 24.8622 102.14C-25.3891 65.7445 -71.7845 67.0956 -105.84 65.4469C-122.846 64.6236 -136.855 63.0517 -146.662 55.5565C-156.489 48.0457 -162.023 34.6543 -162.287 10.3955L-161.992 10.402L-161.698 10.4095C-161.434 34.6191 -155.909 47.7879 -146.301 55.1317C-136.672 62.491 -122.865 64.0691 -105.831 64.8937C-71.8054 66.541 -25.2146 65.1843 25.2114 101.706C45.0211 116.054 56.8358 130.425 62.8753 144.444C68.9158 158.466 69.1685 172.114 65.896 184.996C59.3555 210.743 38.7257 233.45 22.0496 250.064L21.6149 249.678ZM38.7078 245.348L38.4913 245.155C55.1702 228.538 75.6987 205.921 82.2003 180.327C85.4488 167.539 85.1931 154.011 79.2061 140.114C73.2177 126.213 61.4853 111.919 41.7387 97.617C-8.51272 61.2214 -54.9089 62.573 -88.9643 60.9243C-105.97 60.101 -119.98 58.5291 -129.787 51.0339C-139.614 43.5231 -145.147 30.132 -145.411 5.87378L-145.116 5.8803L-144.821 5.88728C-144.557 30.0971 -139.032 43.2658 -129.424 50.6095C-119.795 57.9685 -105.99 59.5465 -88.9554 60.3712C-54.9298 62.0184 -8.33829 60.6612 42.0879 97.1835C61.8977 111.531 73.712 125.903 79.7514 139.922C85.7917 153.944 86.0448 167.591 82.7725 180.473C76.232 206.22 55.6013 228.928 38.9252 245.542L38.7078 245.348ZM55.2219 240.153L55.0041 239.959C71.683 223.342 92.2123 200.725 98.7139 175.131C101.962 162.343 101.707 148.816 95.7202 134.918C89.7318 121.017 77.9983 106.723 58.2514 92.4209C8.00015 56.0255 -38.3954 57.3764 -72.4507 55.7277C-89.4567 54.9044 -103.466 53.3334 -113.273 45.8382C-123.1 38.3274 -128.633 24.9362 -128.898 0.677217L-128.602 0.68374L-128.309 0.691185C-128.045 24.9009 -122.52 38.0696 -112.911 45.4134C-103.282 52.7727 -89.4757 54.3508 -72.4413 55.1754C-38.4157 56.8227 8.17554 55.4649 58.6015 91.9869C78.4113 106.335 90.2256 120.707 96.265 134.726C102.306 148.747 102.558 162.395 99.2857 175.278C92.7452 201.025 72.1154 223.732 55.4393 240.346L55.2219 240.153ZM-108.214 283.168C-107.976 282.925 -107.736 282.681 -107.497 282.436C-106.806 281.09 -106.146 279.734 -105.519 278.366C-105.496 278.236 -105.474 278.107 -105.452 277.977C-105.84 278.447 -106.23 278.914 -106.62 279.378C-107.184 280.202 -107.756 281.02 -108.335 281.832C-108.29 282.278 -108.25 282.723 -108.214 283.168ZM-106.03 280.917C-106.018 280.86 -106.004 280.802 -105.991 280.745C-106.036 280.836 -106.081 280.926 -106.126 281.017C-106.094 280.984 -106.062 280.95 -106.03 280.917ZM-113.189 292.28C-111.602 289.805 -110.099 287.28 -108.702 284.712C-108.705 284.643 -108.707 284.575 -108.711 284.507C-109.785 285.597 -110.848 286.665 -111.896 287.708L-112.114 287.514L-112.331 287.321C-111.159 286.153 -109.968 284.955 -108.763 283.729C-108.791 283.34 -108.822 282.95 -108.857 282.561C-110.561 284.921 -112.326 287.23 -114.131 289.484C-113.792 290.418 -113.478 291.35 -113.189 292.28ZM-114.368 288.843C-113.13 287.291 -111.913 285.714 -110.721 284.112C-111.998 285.548 -113.278 286.956 -114.558 288.335C-114.493 288.504 -114.431 288.674 -114.368 288.843ZM-108.024 288.186C-107.482 286.535 -106.995 284.87 -106.568 283.192C-106.469 282.8 -106.373 282.406 -106.28 282.012C-106.522 282.263 -106.762 282.513 -107.003 282.762C-107.363 283.46 -107.73 284.156 -108.106 284.848C-108.048 285.965 -108.02 287.078 -108.024 288.186ZM-122.409 298.33C-119.834 295.454 -117.274 292.465 -114.789 289.372C-114.858 289.185 -114.926 288.996 -114.997 288.809C-117.744 291.756 -120.478 294.568 -123.129 297.232C-122.885 297.598 -122.645 297.964 -122.409 298.33ZM-111.778 297.666C-110.617 295.155 -109.567 292.605 -108.651 290.021C-108.603 288.634 -108.602 287.24 -108.651 285.84C-110.003 288.276 -111.447 290.671 -112.967 293.021C-112.505 294.576 -112.108 296.124 -111.778 297.666ZM-120.102 302.14C-117.833 299.152 -115.65 296.076 -113.602 292.92C-113.893 291.953 -114.21 290.983 -114.555 290.012C-117.014 293.06 -119.542 296.006 -122.084 298.84C-121.385 299.942 -120.725 301.042 -120.102 302.14ZM-117.183 307.846C-115.37 304.814 -113.693 301.714 -112.193 298.553C-112.517 296.928 -112.912 295.297 -113.383 293.659C-115.408 296.752 -117.558 299.766 -119.79 302.695C-118.831 304.417 -117.963 306.133 -117.183 307.846ZM-110.687 304.022C-109.686 300.08 -109.018 296.068 -108.747 291.997C-109.6 294.238 -110.547 296.454 -111.58 298.639C-111.21 300.523 -110.935 302.397 -110.75 304.261C-110.729 304.181 -110.708 304.102 -110.687 304.022ZM-114.392 315.065C-113.148 312.066 -112.072 309.016 -111.198 305.922C-111.349 303.803 -111.616 301.672 -112.007 299.528C-113.485 302.579 -115.125 305.571 -116.89 308.499C-116.795 308.714 -116.701 308.929 -116.608 309.143C-115.755 311.125 -115.02 313.1 -114.392 315.065ZM-112.399 323.12C-111.357 318.073 -110.879 312.918 -111.098 307.677C-111.952 310.47 -112.967 313.225 -114.117 315.938C-113.385 318.346 -112.817 320.74 -112.399 323.12Z" fill="url(#paint0_radial_123_202)" fill-opacity="0.58"/>
<defs>
<radialGradient id="paint0_radial_123_202" cx="0" cy="0" r="1" gradientUnits="userSpaceOnUse" gradientTransform="translate(-91.6589 162.885) rotate(-135.302) scale(202.361 204.517)">
<stop stop-color="white"/>
<stop offset="1" stop-color="#1E1E1E" stop-opacity="0"/>
<stop offset="1" stop-color="#0E0E35" stop-opacity="0"/>
<stop offset="1" stop-color="white" stop-opacity="0"/>
</radialGradient>
</defs>
</svg>
