<svg width="153" height="53" viewBox="0 0 153 53" fill="none" xmlns="http://www.w3.org/2000/svg">
<path d="M1.95312 17.9688H3.75C3.85417 17.9818 3.90625 18.0339 3.90625 18.125V33.5938C3.90625 34.8438 4.40104 35.625 5.39062 35.9375L5.85938 36.0156H8.08594C8.1901 36.0286 8.24219 36.0807 8.24219 36.1719V39.8438C8.24219 39.9479 8.1901 40 8.08594 40H4.84375C3.26823 40 1.91406 39.1927 0.78125 37.5781C0.3125 36.901 0.0520833 36.1198 0 35.2344V19.9219C0.143229 18.6198 0.794271 17.9688 1.95312 17.9688ZM7.77344 36.0156H17.0703V40H7.77344C7.66927 40 7.61719 39.9479 7.61719 39.8438V36.1719C7.63021 36.0677 7.68229 36.0156 7.77344 36.0156ZM16.9531 36.0156H26.25V40H16.9531C16.849 40 16.7969 39.9479 16.7969 39.8438V36.1719C16.8099 36.0677 16.862 36.0156 16.9531 36.0156ZM26.1328 36.0156H35.4297V40H26.1328C26.0286 40 25.9766 39.9479 25.9766 39.8438V36.1719C25.9896 36.0677 26.0417 36.0156 26.1328 36.0156ZM35.3125 36.0156H44.6094V40H35.3125C35.2083 40 35.1562 39.9479 35.1562 39.8438V36.1719C35.1693 36.0677 35.2214 36.0156 35.3125 36.0156ZM44.4922 36.0156H53.7891V40H44.4922C44.388 40 44.3359 39.9479 44.3359 39.8438V36.1719C44.349 36.0677 44.401 36.0156 44.4922 36.0156ZM53.6719 36.0156H62.9688V40H53.6719C53.5677 40 53.5156 39.9479 53.5156 39.8438V36.1719C53.5286 36.0677 53.5807 36.0156 53.6719 36.0156ZM62.8516 36.0156H72.1484V40H62.8516C62.7474 40 62.6953 39.9479 62.6953 39.8438V36.1719C62.7083 36.0677 62.7604 36.0156 62.8516 36.0156ZM72.0312 36.0156H81.3281V40H72.0312C71.9271 40 71.875 39.9479 71.875 39.8438V36.1719C71.888 36.0677 71.9401 36.0156 72.0312 36.0156ZM81.2109 36.0156H90.5078V40H81.2109C81.1068 40 81.0547 39.9479 81.0547 39.8438V36.1719C81.0677 36.0677 81.1198 36.0156 81.2109 36.0156ZM90.3906 36.0156H99.6875V40H90.3906C90.2865 40 90.2344 39.9479 90.2344 39.8438V36.1719C90.2474 36.0677 90.2995 36.0156 90.3906 36.0156ZM99.5703 36.0156H108.867V40H99.5703C99.4661 40 99.4141 39.9479 99.4141 39.8438V36.1719C99.4271 36.0677 99.4792 36.0156 99.5703 36.0156ZM118.398 28.5156H118.789C119.779 28.5156 120.378 29.2188 120.586 30.625V35.9375H123.125C123.229 35.9505 123.281 36.0026 123.281 36.0938V39.8438C123.281 39.9479 123.229 40 123.125 40H108.945C108.841 40 108.789 39.9479 108.789 39.8438V36.0938C108.802 35.9896 108.854 35.9375 108.945 35.9375H116.602V30.8594C116.602 29.7396 117.044 28.9844 117.93 28.5938L118.398 28.5156ZM112.637 42.0703C113.145 42.0703 113.633 42.194 114.102 42.4414C114.57 42.7018 114.941 43.0729 115.215 43.5547C115.488 44.0365 115.625 44.5378 115.625 45.0586C115.625 45.5664 115.495 46.0547 115.234 46.5234C114.974 46.9922 114.603 47.3568 114.121 47.6172C113.652 47.8906 113.158 48.0273 112.637 48.0273C112.129 48.0273 111.634 47.8906 111.152 47.6172C110.684 47.3568 110.319 46.9922 110.059 46.5234C109.798 46.0547 109.668 45.5664 109.668 45.0586C109.668 44.5378 109.798 44.0365 110.059 43.5547C110.332 43.0729 110.703 42.7018 111.172 42.4414C111.654 42.194 112.142 42.0703 112.637 42.0703ZM122.695 36.0156H148.477C149.935 36.1979 150.664 36.7969 150.664 37.8125V39.8438C150.664 39.9479 150.612 40 150.508 40H122.695C122.591 40 122.539 39.9479 122.539 39.8438V36.1719C122.552 36.0677 122.604 36.0156 122.695 36.0156ZM130.215 29.8828C130.618 29.8828 131.009 29.987 131.387 30.1953C131.764 30.3906 132.057 30.6836 132.266 31.0742C132.487 31.4518 132.598 31.849 132.598 32.2656C132.598 32.6693 132.493 33.0599 132.285 33.4375C132.077 33.8151 131.784 34.1081 131.406 34.3164C131.029 34.5247 130.632 34.6289 130.215 34.6289C129.811 34.6289 129.421 34.5247 129.043 34.3164C128.665 34.1081 128.372 33.8151 128.164 33.4375C127.956 33.0599 127.852 32.6693 127.852 32.2656C127.852 31.849 127.956 31.4518 128.164 31.0742C128.372 30.6836 128.665 30.3906 129.043 30.1953C129.434 29.987 129.824 29.8828 130.215 29.8828ZM135.371 29.8828C135.775 29.8828 136.165 29.987 136.543 30.1953C136.921 30.3906 137.214 30.6836 137.422 31.0742C137.643 31.4518 137.754 31.849 137.754 32.2656C137.754 32.6693 137.65 33.0599 137.441 33.4375C137.233 33.8151 136.94 34.1081 136.562 34.3164C136.185 34.5247 135.788 34.6289 135.371 34.6289C134.967 34.6289 134.577 34.5247 134.199 34.3164C133.822 34.1081 133.529 33.8151 133.32 33.4375C133.112 33.0599 133.008 32.6693 133.008 32.2656C133.008 31.849 133.112 31.4518 133.32 31.0742C133.529 30.6836 133.822 30.3906 134.199 30.1953C134.59 29.987 134.98 29.8828 135.371 29.8828ZM140.527 29.8828C140.931 29.8828 141.322 29.987 141.699 30.1953C142.077 30.3906 142.37 30.6836 142.578 31.0742C142.799 31.4518 142.91 31.849 142.91 32.2656C142.91 32.6693 142.806 33.0599 142.598 33.4375C142.389 33.8151 142.096 34.1081 141.719 34.3164C141.341 34.5247 140.944 34.6289 140.527 34.6289C140.124 34.6289 139.733 34.5247 139.355 34.3164C138.978 34.1081 138.685 33.8151 138.477 33.4375C138.268 33.0599 138.164 32.6693 138.164 32.2656C138.164 31.849 138.268 31.4518 138.477 31.0742C138.685 30.6836 138.978 30.3906 139.355 30.1953C139.746 29.987 140.137 29.8828 140.527 29.8828Z" fill="#B383FF"/>
<path d="M40.5703 0.3125H40.7266C41.2604 0.3125 41.599 0.78125 41.7422 1.71875V1.79688C34.3333 4.40104 30.5573 5.70312 30.4141 5.70312H30.3359C29.8802 5.70312 29.5156 5.23438 29.2422 4.29688C36.4297 1.69271 40.2057 0.364583 40.5703 0.3125ZM43.6172 2.03125C44.776 2.03125 45.5312 3.09896 45.8828 5.23438L36.0391 8.90625L32.6016 10.1562L41.5859 20.8594C42.3672 22.0182 42.7578 23.138 42.7578 24.2188V24.8438C42.7578 25.1302 42.7057 25.5208 42.6016 26.0156H47.875C47.9792 26.0286 48.0312 26.0807 48.0312 26.1719V29.8438C48.0312 29.9479 47.9792 30 47.875 30H14.7109C13.513 29.7396 12.9141 29.1406 12.9141 28.2031V26.1719C12.9271 26.0677 12.9792 26.0156 13.0703 26.0156H37.6797C38.6172 25.8724 39.0859 25.4557 39.0859 24.7656V24.1406C39.0859 23.5026 38.0443 22.0703 35.9609 19.8438L27.6797 9.76562C27.5755 9.57031 27.5234 9.36198 27.5234 9.14062C27.5234 8.125 28.1224 7.42188 29.3203 7.03125C38.2917 3.69792 43.0312 2.03125 43.5391 2.03125H43.6172ZM47.25 26.0156H56.5469V30H47.25C47.1458 30 47.0938 29.9479 47.0938 29.8438V26.1719C47.1068 26.0677 47.1589 26.0156 47.25 26.0156ZM66.0781 18.5156H66.4688C67.4583 18.5156 68.0573 19.2188 68.2656 20.625V25.9375H70.8047C70.9089 25.9505 70.9609 26.0026 70.9609 26.0938V29.8438C70.9609 29.9479 70.9089 30 70.8047 30H56.625C56.5208 30 56.4688 29.9479 56.4688 29.8438V26.0938C56.4818 25.9896 56.5339 25.9375 56.625 25.9375H64.2812V20.8594C64.2812 19.7396 64.724 18.9844 65.6094 18.5938L66.0781 18.5156ZM58.0898 18.3203C58.5846 18.3203 59.0664 18.4505 59.5352 18.7109C60.0169 18.9583 60.3945 19.3229 60.668 19.8047C60.9414 20.2865 61.0781 20.7878 61.0781 21.3086C61.0781 21.8164 60.9414 22.3047 60.668 22.7734C60.4076 23.2422 60.043 23.6133 59.5742 23.8867C59.1055 24.1471 58.6107 24.2773 58.0898 24.2773C57.582 24.2773 57.0872 24.1471 56.6055 23.8867C56.1367 23.6133 55.7721 23.2422 55.5117 22.7734C55.2513 22.3047 55.1211 21.8164 55.1211 21.3086C55.1211 20.7878 55.2578 20.2865 55.5312 19.8047C55.7917 19.3229 56.1562 18.9583 56.625 18.7109C57.1068 18.4505 57.5951 18.3203 58.0898 18.3203ZM70.1797 26.0156H79.4766V30H70.1797C70.0755 30 70.0234 29.9479 70.0234 29.8438V26.1719C70.0365 26.0677 70.0885 26.0156 70.1797 26.0156ZM89.3984 9.64844H89.8672C90.4792 9.64844 91.5208 10.5078 92.9922 12.2266C98.6172 17.7474 101.43 21.8099 101.43 24.4141V25.1172C101.43 27.2917 100.102 29.2448 97.4453 30.9766C96.5339 31.2891 95.8307 31.4453 95.3359 31.4453H94.5547C93.3958 31.4453 91.625 30.9505 89.2422 29.9609H79.5547C79.4505 29.9609 79.3984 29.9089 79.3984 29.8047V26.0547C79.4115 25.9505 79.4635 25.8984 79.5547 25.8984H82.1328C80.7266 23.9974 80.0234 22.1745 80.0234 20.4297C80.0234 17.7214 81.2734 15.7682 83.7734 14.5703C84.5547 14.2057 85.4661 14.0234 86.5078 14.0234C87.7969 14.0234 89.099 14.4922 90.4141 15.4297V15.3516C88.5391 13.4766 87.3411 12.2005 86.8203 11.5234C87.9661 10.2734 88.8255 9.64844 89.3984 9.64844ZM82.5234 20.5078C82.5234 21.9792 83.3307 23.0208 84.9453 23.6328C85.2318 23.6849 85.4661 23.7109 85.6484 23.7109H85.8828C87.263 23.7109 88.2526 22.9557 88.8516 21.4453C88.9557 21.0547 89.0078 20.6901 89.0078 20.3516C89.0078 18.9062 88.1484 17.8906 86.4297 17.3047C86.2474 17.3047 86.013 17.2786 85.7266 17.2266C84.2161 17.2266 83.1745 18.0859 82.6016 19.8047L82.5234 20.5078ZM91.5859 26.0547C91.5859 27.6302 92.5234 28.6719 94.3984 29.1797H94.9453C96.612 29.1797 97.6536 28.1641 98.0703 26.1328V25.9766C98.0703 24.388 97.2109 23.3203 95.4922 22.7734C95.3099 22.7734 95.0755 22.7474 94.7891 22.6953C93.3177 22.6953 92.276 23.5286 91.6641 25.1953C91.612 25.651 91.5859 25.9375 91.5859 26.0547Z" fill="#B383FF"/>
</svg>
